<mxfile host="app.diagrams.net" modified="2024-05-21T09:59:29.781Z" agent="Mozilla/5.0 (Windows NT 10.0; Win64; x64) AppleWebKit/537.36 (KHTML, like Gecko) Chrome/125.0.0.0 Safari/537.36 Edg/125.0.0.0" etag="pZOUt4O6OtYiY4Kfg2yA" version="22.1.16" type="github">
  <diagram name="Page-1" id="rH8T98lN_TQKzyCQMwFT">
    <mxGraphModel dx="1386" dy="785" grid="1" gridSize="10" guides="1" tooltips="1" connect="1" arrows="1" fold="1" page="1" pageScale="1" pageWidth="850" pageHeight="1100" math="0" shadow="0">
      <root>
        <mxCell id="0" />
        <mxCell id="1" parent="0" />
        <mxCell id="Difni4shtZxVVwpsnUwN-2" style="edgeStyle=orthogonalEdgeStyle;rounded=0;orthogonalLoop=1;jettySize=auto;html=1;" edge="1" parent="1" source="Difni4shtZxVVwpsnUwN-1">
          <mxGeometry relative="1" as="geometry">
            <mxPoint x="270" y="72" as="targetPoint" />
          </mxGeometry>
        </mxCell>
        <mxCell id="Difni4shtZxVVwpsnUwN-1" value="&lt;font style=&quot;font-size: 18px;&quot;&gt;Data Change&lt;br&gt;Events&lt;/font&gt;" style="text;html=1;align=center;verticalAlign=middle;resizable=0;points=[];autosize=1;strokeColor=none;fillColor=none;" vertex="1" parent="1">
          <mxGeometry y="42" width="130" height="60" as="geometry" />
        </mxCell>
        <mxCell id="Difni4shtZxVVwpsnUwN-3" value="DCM" style="text;html=1;align=center;verticalAlign=middle;resizable=0;points=[];autosize=1;strokeColor=none;fillColor=none;" vertex="1" parent="1">
          <mxGeometry x="165" y="40" width="50" height="30" as="geometry" />
        </mxCell>
        <mxCell id="Difni4shtZxVVwpsnUwN-9" style="edgeStyle=orthogonalEdgeStyle;rounded=0;orthogonalLoop=1;jettySize=auto;html=1;exitX=0.5;exitY=1;exitDx=0;exitDy=0;" edge="1" parent="1" source="Difni4shtZxVVwpsnUwN-4">
          <mxGeometry relative="1" as="geometry">
            <mxPoint x="190" y="342" as="targetPoint" />
          </mxGeometry>
        </mxCell>
        <mxCell id="Difni4shtZxVVwpsnUwN-4" value="AlertManagement&lt;br&gt;Worker" style="whiteSpace=wrap;html=1;" vertex="1" parent="1">
          <mxGeometry x="260" y="42" width="120" height="60" as="geometry" />
        </mxCell>
        <mxCell id="Difni4shtZxVVwpsnUwN-6" value="Criteria Evaluation" style="text;html=1;align=center;verticalAlign=middle;resizable=0;points=[];autosize=1;strokeColor=none;fillColor=none;" vertex="1" parent="1">
          <mxGeometry x="320" y="152" width="120" height="30" as="geometry" />
        </mxCell>
        <mxCell id="Difni4shtZxVVwpsnUwN-10" value="Matched" style="text;html=1;align=center;verticalAlign=middle;resizable=0;points=[];autosize=1;strokeColor=none;fillColor=none;" vertex="1" parent="1">
          <mxGeometry x="125" y="340" width="70" height="30" as="geometry" />
        </mxCell>
        <mxCell id="Difni4shtZxVVwpsnUwN-17" value="" style="edgeStyle=orthogonalEdgeStyle;rounded=0;orthogonalLoop=1;jettySize=auto;html=1;" edge="1" parent="1" source="Difni4shtZxVVwpsnUwN-11" target="Difni4shtZxVVwpsnUwN-16">
          <mxGeometry relative="1" as="geometry" />
        </mxCell>
        <mxCell id="Difni4shtZxVVwpsnUwN-11" value="Failed" style="text;html=1;align=center;verticalAlign=middle;resizable=0;points=[];autosize=1;strokeColor=none;fillColor=none;" vertex="1" parent="1">
          <mxGeometry x="390" y="340" width="60" height="30" as="geometry" />
        </mxCell>
        <mxCell id="Difni4shtZxVVwpsnUwN-13" style="edgeStyle=orthogonalEdgeStyle;rounded=0;orthogonalLoop=1;jettySize=auto;html=1;exitX=0.5;exitY=1;exitDx=0;exitDy=0;" edge="1" parent="1" source="Difni4shtZxVVwpsnUwN-4" target="Difni4shtZxVVwpsnUwN-11">
          <mxGeometry relative="1" as="geometry">
            <mxPoint x="530" y="342" as="targetPoint" />
            <Array as="points">
              <mxPoint x="320" y="221" />
              <mxPoint x="420" y="221" />
            </Array>
          </mxGeometry>
        </mxCell>
        <mxCell id="Difni4shtZxVVwpsnUwN-14" value="Scheduled Job&lt;br&gt;Creation" style="text;html=1;align=center;verticalAlign=middle;resizable=0;points=[];autosize=1;strokeColor=none;fillColor=none;" vertex="1" parent="1">
          <mxGeometry x="110" y="465" width="100" height="40" as="geometry" />
        </mxCell>
        <mxCell id="Difni4shtZxVVwpsnUwN-15" style="edgeStyle=orthogonalEdgeStyle;rounded=0;orthogonalLoop=1;jettySize=auto;html=1;entryX=0.3;entryY=-0.075;entryDx=0;entryDy=0;entryPerimeter=0;" edge="1" parent="1" source="Difni4shtZxVVwpsnUwN-10" target="Difni4shtZxVVwpsnUwN-14">
          <mxGeometry relative="1" as="geometry">
            <Array as="points">
              <mxPoint x="160" y="418" />
              <mxPoint x="140" y="418" />
            </Array>
          </mxGeometry>
        </mxCell>
        <mxCell id="Difni4shtZxVVwpsnUwN-16" value="" style="shape=waypoint;sketch=0;size=6;pointerEvents=1;points=[];fillColor=none;resizable=0;rotatable=0;perimeter=centerPerimeter;snapToPoint=1;" vertex="1" parent="1">
          <mxGeometry x="410" y="455" width="20" height="20" as="geometry" />
        </mxCell>
        <mxCell id="Difni4shtZxVVwpsnUwN-34" style="edgeStyle=orthogonalEdgeStyle;rounded=0;orthogonalLoop=1;jettySize=auto;html=1;entryX=0;entryY=0.5;entryDx=0;entryDy=0;" edge="1" parent="1" source="Difni4shtZxVVwpsnUwN-19" target="Difni4shtZxVVwpsnUwN-23">
          <mxGeometry relative="1" as="geometry" />
        </mxCell>
        <mxCell id="Difni4shtZxVVwpsnUwN-19" value="&lt;span style=&quot;font-size: 18px;&quot;&gt;Scheduled Job &lt;br&gt;Event&lt;/span&gt;" style="text;html=1;align=center;verticalAlign=middle;resizable=0;points=[];autosize=1;strokeColor=none;fillColor=none;" vertex="1" parent="1">
          <mxGeometry x="90" y="592" width="140" height="60" as="geometry" />
        </mxCell>
        <mxCell id="Difni4shtZxVVwpsnUwN-20" style="edgeStyle=orthogonalEdgeStyle;rounded=0;orthogonalLoop=1;jettySize=auto;html=1;entryX=0.5;entryY=-0.033;entryDx=0;entryDy=0;entryPerimeter=0;" edge="1" parent="1" source="Difni4shtZxVVwpsnUwN-14" target="Difni4shtZxVVwpsnUwN-19">
          <mxGeometry relative="1" as="geometry">
            <Array as="points">
              <mxPoint x="160" y="522" />
              <mxPoint x="160" y="522" />
            </Array>
          </mxGeometry>
        </mxCell>
        <mxCell id="Difni4shtZxVVwpsnUwN-22" value="SJEM" style="text;html=1;align=center;verticalAlign=middle;resizable=0;points=[];autosize=1;strokeColor=none;fillColor=none;" vertex="1" parent="1">
          <mxGeometry x="270" y="600" width="60" height="30" as="geometry" />
        </mxCell>
        <mxCell id="Difni4shtZxVVwpsnUwN-30" style="edgeStyle=orthogonalEdgeStyle;rounded=0;orthogonalLoop=1;jettySize=auto;html=1;exitX=1;exitY=0.5;exitDx=0;exitDy=0;" edge="1" parent="1" source="Difni4shtZxVVwpsnUwN-23" target="Difni4shtZxVVwpsnUwN-25">
          <mxGeometry relative="1" as="geometry" />
        </mxCell>
        <mxCell id="Difni4shtZxVVwpsnUwN-31" style="edgeStyle=orthogonalEdgeStyle;rounded=0;orthogonalLoop=1;jettySize=auto;html=1;exitX=1;exitY=0.5;exitDx=0;exitDy=0;" edge="1" parent="1" source="Difni4shtZxVVwpsnUwN-23" target="Difni4shtZxVVwpsnUwN-29">
          <mxGeometry relative="1" as="geometry" />
        </mxCell>
        <mxCell id="Difni4shtZxVVwpsnUwN-23" value="Scheduled Job&amp;nbsp;&lt;br&gt;Event Worker" style="rounded=0;whiteSpace=wrap;html=1;" vertex="1" parent="1">
          <mxGeometry x="375" y="630" width="120" height="60" as="geometry" />
        </mxCell>
        <mxCell id="Difni4shtZxVVwpsnUwN-27" value="" style="edgeStyle=orthogonalEdgeStyle;rounded=0;orthogonalLoop=1;jettySize=auto;html=1;" edge="1" parent="1" source="Difni4shtZxVVwpsnUwN-25" target="Difni4shtZxVVwpsnUwN-26">
          <mxGeometry relative="1" as="geometry" />
        </mxCell>
        <mxCell id="Difni4shtZxVVwpsnUwN-25" value="If email&lt;br&gt;Payload" style="text;html=1;align=center;verticalAlign=middle;resizable=0;points=[];autosize=1;strokeColor=none;fillColor=none;" vertex="1" parent="1">
          <mxGeometry x="590" y="385" width="70" height="40" as="geometry" />
        </mxCell>
        <mxCell id="Difni4shtZxVVwpsnUwN-26" value="Send&lt;br&gt;Email" style="ellipse;whiteSpace=wrap;html=1;" vertex="1" parent="1">
          <mxGeometry x="690" y="365" width="80" height="80" as="geometry" />
        </mxCell>
        <mxCell id="Difni4shtZxVVwpsnUwN-32" style="edgeStyle=orthogonalEdgeStyle;rounded=0;orthogonalLoop=1;jettySize=auto;html=1;" edge="1" parent="1" source="Difni4shtZxVVwpsnUwN-29">
          <mxGeometry relative="1" as="geometry">
            <mxPoint x="730" y="712" as="targetPoint" />
          </mxGeometry>
        </mxCell>
        <mxCell id="Difni4shtZxVVwpsnUwN-29" value="If In-App&lt;br&gt;Payload" style="text;html=1;align=center;verticalAlign=middle;resizable=0;points=[];autosize=1;strokeColor=none;fillColor=none;" vertex="1" parent="1">
          <mxGeometry x="590" y="692" width="70" height="40" as="geometry" />
        </mxCell>
        <mxCell id="Difni4shtZxVVwpsnUwN-61" value="Save&lt;br&gt;In-App&lt;br&gt;Payload&lt;br&gt;To Db" style="ellipse;whiteSpace=wrap;html=1;" vertex="1" parent="1">
          <mxGeometry x="730" y="672" width="80" height="80" as="geometry" />
        </mxCell>
      </root>
    </mxGraphModel>
  </diagram>
</mxfile>
